<svg width="21" height="20" viewBox="0 0 21 20" fill="none" xmlns="http://www.w3.org/2000/svg">
<path d="M16.3583 6.15837L17.5417 4.97504C17.1667 4.55004 16.7917 4.16671 16.3667 3.80004L15.1833 5.00004C13.8917 3.95004 12.2667 3.33337 10.5 3.33337C8.51088 3.33337 6.60322 4.12355 5.1967 5.53007C3.79018 6.9366 3 8.84425 3 10.8334C3 12.8225 3.79018 14.7302 5.1967 16.1367C6.60322 17.5432 8.51088 18.3334 10.5 18.3334C14.6667 18.3334 18 14.975 18 10.8334C18 9.06671 17.3833 7.44171 16.3583 6.15837ZM11.3333 11.6667H9.66667V5.83337H11.3333V11.6667ZM13 0.833374H8V2.50004H13V0.833374Z" fill="#FF0000"/>
</svg>